<?xml version="1.0" encoding="UTF-8" standalone="no"?>
<!DOCTYPE svg PUBLIC "-//W3C//DTD SVG 1.0//EN" "http://www.w3.org/TR/2001/PR-SVG-20010719/DTD/svg10.dtd">
<svg width="44cm" height="21cm" viewBox="34 30 862 412" xmlns="http://www.w3.org/2000/svg" xmlns:xlink="http://www.w3.org/1999/xlink">
  <g>
    <ellipse style="fill: #ffffff" cx="474.236" cy="263.433" rx="102.378" ry="41.3292"/>
    <ellipse style="fill: none; fill-opacity:0; stroke-width: 2; stroke: #000000" cx="474.236" cy="263.433" rx="102.378" ry="41.3292"/>
    <text font-size="12.8" style="fill: #000000;text-anchor:middle;font-family:sans-serif;font-style:normal;font-weight:normal" x="474.236" y="268.233">
      <tspan x="474.236" y="268.233"></tspan>
    </text>
  </g>
  <text font-size="12.8" style="fill: #000000;text-anchor:start;font-family:sans-serif;font-style:normal;font-weight:normal" x="307.704" y="135.214">
    <tspan x="307.704" y="135.214"></tspan>
  </text>
  <g>
    <rect style="fill: #ffffff" x="35.614" y="152.175" width="187" height="56.9338"/>
    <rect style="fill: none; fill-opacity:0; stroke-width: 2; stroke: #000000" x="35.614" y="152.175" width="187" height="56.9338"/>
    <text font-size="12.8" style="fill: #000000;text-anchor:middle;font-family:sans-serif;font-style:normal;font-weight:normal" x="129.114" y="185.442">
      <tspan x="129.114" y="185.442"></tspan>
    </text>
  </g>
  <g>
    <rect style="fill: #ffffff" x="38.7046" y="382.812" width="183" height="53"/>
    <rect style="fill: none; fill-opacity:0; stroke-width: 2; stroke: #000000" x="38.7046" y="382.812" width="183" height="53"/>
    <text font-size="12.8" style="fill: #000000;text-anchor:middle;font-family:sans-serif;font-style:normal;font-weight:normal" x="130.205" y="414.112">
      <tspan x="130.205" y="414.112"></tspan>
    </text>
  </g>
  <g>
    <rect style="fill: #ffffff" x="717.704" y="151.813" width="177.189" height="56.7365"/>
    <rect style="fill: none; fill-opacity:0; stroke-width: 2; stroke: #000000" x="717.704" y="151.813" width="177.189" height="56.7365"/>
    <text font-size="12.8" style="fill: #000000;text-anchor:middle;font-family:sans-serif;font-style:normal;font-weight:normal" x="806.298" y="184.981">
      <tspan x="806.298" y="184.981"></tspan>
    </text>
  </g>
  <g>
    <rect style="fill: #ffffff" x="715.704" y="390.812" width="179" height="50"/>
    <rect style="fill: none; fill-opacity:0; stroke-width: 2; stroke: #000000" x="715.704" y="390.812" width="179" height="50"/>
    <text font-size="12.8" style="fill: #000000;text-anchor:middle;font-family:sans-serif;font-style:normal;font-weight:normal" x="805.204" y="420.612">
      <tspan x="805.204" y="420.612"></tspan>
    </text>
  </g>
  <g>
    <line style="fill: none; fill-opacity:0; stroke-width: 2; stroke: #000000" x1="222.614" y1="194.876" x2="363.011" y2="259.368"/>
    <polygon style="fill: #000000" points="369.826,262.499 358.652,262.868 363.011,259.368 362.826,253.781 "/>
    <polygon style="fill: none; fill-opacity:0; stroke-width: 2; stroke: #000000" points="369.826,262.499 358.652,262.868 363.011,259.368 362.826,253.781 "/>
  </g>
  <g>
    <line style="fill: none; fill-opacity:0; stroke-width: 2; stroke: #000000" x1="379.652" y1="247.616" x2="231.262" y2="170.881"/>
    <polygon style="fill: #000000" points="224.6,167.436 235.78,167.588 231.262,170.881 231.186,176.471 "/>
    <polygon style="fill: none; fill-opacity:0; stroke-width: 2; stroke: #000000" points="224.6,167.436 235.78,167.588 231.262,170.881 231.186,176.471 "/>
  </g>
  <g>
    <line style="fill: none; fill-opacity:0; stroke-width: 2; stroke: #000000" x1="568.822" y1="247.616" x2="709.167" y2="170.678"/>
    <polygon style="fill: #000000" points="715.743,167.072 709.378,176.264 709.167,170.678 704.571,167.495 "/>
    <polygon style="fill: none; fill-opacity:0; stroke-width: 2; stroke: #000000" points="715.743,167.072 709.378,176.264 709.167,170.678 704.571,167.495 "/>
  </g>
  <g>
    <line style="fill: none; fill-opacity:0; stroke-width: 2; stroke: #000000" x1="717.704" y1="194.366" x2="585.359" y2="259.151"/>
    <polygon style="fill: #000000" points="578.622,262.449 585.406,253.561 585.359,259.151 589.802,262.543 "/>
    <polygon style="fill: none; fill-opacity:0; stroke-width: 2; stroke: #000000" points="578.622,262.449 585.406,253.561 585.359,259.151 589.802,262.543 "/>
  </g>
  <g>
    <line style="fill: none; fill-opacity:0; stroke-width: 2; stroke: #000000" x1="221.704" y1="396.062" x2="393.4" y2="297.505"/>
    <polygon style="fill: #000000" points="399.905,293.771 393.721,303.086 393.4,297.505 388.743,294.413 "/>
    <polygon style="fill: none; fill-opacity:0; stroke-width: 2; stroke: #000000" points="399.905,293.771 393.721,303.086 393.4,297.505 388.743,294.413 "/>
  </g>
  <g>
    <line style="fill: none; fill-opacity:0; stroke-width: 2; stroke: #000000" x1="435.058" y1="301.616" x2="230.174" y2="417.761"/>
    <polygon style="fill: #000000" points="223.649,421.459 229.883,412.178 230.174,417.761 234.814,420.877 "/>
    <polygon style="fill: none; fill-opacity:0; stroke-width: 2; stroke: #000000" points="223.649,421.459 229.883,412.178 230.174,417.761 234.814,420.877 "/>
  </g>
  <g>
    <line style="fill: none; fill-opacity:0; stroke-width: 2; stroke: #000000" x1="546.628" y1="292.658" x2="707.558" y2="397.98"/>
    <polygon style="fill: #000000" points="713.833,402.088 702.728,400.795 707.558,397.98 708.204,392.428 "/>
    <polygon style="fill: none; fill-opacity:0; stroke-width: 2; stroke: #000000" points="713.833,402.088 702.728,400.795 707.558,397.98 708.204,392.428 "/>
  </g>
  <g>
    <line style="fill: none; fill-opacity:0; stroke-width: 2; stroke: #000000" x1="715.704" y1="428.312" x2="521.665" y2="306.784"/>
    <polygon style="fill: #000000" points="515.309,302.803 526.438,303.873 521.665,306.784 521.13,312.348 "/>
    <polygon style="fill: none; fill-opacity:0; stroke-width: 2; stroke: #000000" points="515.309,302.803 526.438,303.873 521.665,306.784 521.13,312.348 "/>
  </g>
  <g>
    <rect style="fill: #ffffff" x="384.342" y="31.4556" width="179" height="51"/>
    <rect style="fill: none; fill-opacity:0; stroke-width: 2; stroke: #000000" x="384.342" y="31.4556" width="179" height="51"/>
    <text font-size="16.9333" style="fill: #000000;text-anchor:middle;font-family:sans-serif;font-style:normal;font-weight:normal" x="473.842" y="63.3223">
      <tspan x="473.842" y="63.3223">Admin</tspan>
    </text>
  </g>
  <text font-size="12.8" style="fill: #000000;text-anchor:start;font-family:sans-serif;font-style:normal;font-weight:normal" x="399.704" y="398.812">
    <tspan x="399.704" y="398.812"></tspan>
  </text>
  <text font-size="12.8" style="fill: #000000;text-anchor:start;font-family:sans-serif;font-style:normal;font-weight:normal" x="400.704" y="434.812">
    <tspan x="400.704" y="434.812"></tspan>
  </text>
  <text font-size="16.9333" style="fill: #000000;text-anchor:start;font-family:sans-serif;font-style:normal;font-weight:normal" x="430.704" y="275.812">
    <tspan x="430.704" y="275.812">Home Care</tspan>
  </text>
  <text font-size="16.9333" style="fill: #000000;text-anchor:start;font-family:sans-serif;font-style:normal;font-weight:normal" x="783.704" y="424.812">
    <tspan x="783.704" y="424.812">Nurse</tspan>
  </text>
  <text font-size="16.9333" style="fill: #000000;text-anchor:start;font-family:sans-serif;font-style:normal;font-weight:normal" x="100.705" y="416.812">
    <tspan x="100.705" y="416.812">Doctor</tspan>
  </text>
  <text font-size="16.9333" style="fill: #000000;text-anchor:start;font-family:sans-serif;font-style:normal;font-weight:normal" x="55.7046" y="176.813">
    <tspan x="55.7046" y="176.813">Insurance Company</tspan>
  </text>
  <text font-size="16.9333" style="fill: #000000;text-anchor:start;font-family:sans-serif;font-style:normal;font-weight:normal" x="777.704" y="182.813">
    <tspan x="777.704" y="182.813">Patient</tspan>
  </text>
  <g>
    <line style="fill: none; fill-opacity:0; stroke-width: 2; stroke: #000000" x1="439.47" y1="83.6092" x2="440.896" y2="216.97"/>
    <polygon style="fill: #000000" points="440.976,224.47 435.869,214.524 440.896,216.97 445.869,214.417 "/>
    <polygon style="fill: none; fill-opacity:0; stroke-width: 2; stroke: #000000" points="440.976,224.47 435.869,214.524 440.896,216.97 445.869,214.417 "/>
  </g>
  <g>
    <line style="fill: none; fill-opacity:0; stroke-width: 2; stroke: #000000" x1="474.236" y1="222.104" x2="473.869" y2="92.1916"/>
    <polygon style="fill: #000000" points="473.848,84.6917 478.877,94.6775 473.869,92.1916 468.877,94.7057 "/>
    <polygon style="fill: none; fill-opacity:0; stroke-width: 2; stroke: #000000" points="473.848,84.6917 478.877,94.6775 473.869,92.1916 468.877,94.7057 "/>
  </g>
  <text font-size="14.1111" style="fill: #000000;text-anchor:start;font-family:sans-serif;font-style:normal;font-weight:normal" x="269.132" y="251.012">
    <tspan x="269.132" y="251.012">Request</tspan>
  </text>
  <text font-size="12.8" style="fill: #000000;text-anchor:start;font-family:sans-serif;font-style:normal;font-weight:normal" x="281.116" y="229.828">
    <tspan x="281.116" y="229.828"></tspan>
  </text>
  <text font-size="12.8" style="fill: #000000;text-anchor:start;font-family:sans-serif;font-style:normal;font-weight:normal" x="235.316" y="248.366">
    <tspan x="235.316" y="248.366"></tspan>
  </text>
  <text font-size="12.8" style="fill: #000000;text-anchor:start;font-family:sans-serif;font-style:normal;font-weight:normal" x="275.664" y="286.534">
    <tspan x="275.664" y="286.534"></tspan>
  </text>
  <text font-size="12.8" style="fill: #000000;text-anchor:start;font-family:sans-serif;font-style:normal;font-weight:normal" x="275.664" y="273.448">
    <tspan x="275.664" y="273.448"></tspan>
  </text>
  <text font-size="12.8" style="fill: #000000;text-anchor:start;font-family:sans-serif;font-style:normal;font-weight:normal" x="156.799" y="81.5196">
    <tspan x="156.799" y="81.5196"></tspan>
  </text>
  <text font-size="12.8" style="fill: #000000;text-anchor:start;font-family:sans-serif;font-style:normal;font-weight:normal" x="260.398" y="241.824">
    <tspan x="260.398" y="241.824"></tspan>
  </text>
  <text font-size="12.8" style="fill: #000000;text-anchor:start;font-family:sans-serif;font-style:normal;font-weight:normal" x="343.276" y="297.44">
    <tspan x="343.276" y="297.44"></tspan>
  </text>
  <text font-size="13.5467" style="fill: #000000;text-anchor:start;font-family:sans-serif;font-style:normal;font-weight:normal" x="301.76" y="201.548">
    <tspan x="301.76" y="201.548">Response</tspan>
  </text>
  <text font-size="13.5467" style="fill: #000000;text-anchor:start;font-family:sans-serif;font-style:normal;font-weight:normal" x="250.198" y="348.77">
    <tspan x="250.198" y="348.77">Request</tspan>
  </text>
  <text font-size="13.5467" style="fill: #000000;text-anchor:start;font-family:sans-serif;font-style:normal;font-weight:normal" x="300.488" y="394.894">
    <tspan x="300.488" y="394.894">Response</tspan>
  </text>
  <text font-size="13.5467" style="fill: #000000;text-anchor:start;font-family:sans-serif;font-style:normal;font-weight:normal" x="589.898" y="202.728">
    <tspan x="589.898" y="202.728">Response</tspan>
  </text>
  <text font-size="13.5467" style="fill: #000000;text-anchor:start;font-family:sans-serif;font-style:normal;font-weight:normal" x="645.55" y="240.108">
    <tspan x="645.55" y="240.108">Request</tspan>
  </text>
  <text font-size="13.5467" style="fill: #000000;text-anchor:start;font-family:sans-serif;font-style:normal;font-weight:normal" x="568.988" y="383.512">
    <tspan x="568.988" y="383.512">Request</tspan>
  </text>
  <text font-size="13.5467" style="fill: #000000;text-anchor:start;font-family:sans-serif;font-style:normal;font-weight:normal" x="635.55" y="343.586">
    <tspan x="635.55" y="343.586">Response</tspan>
  </text>
  <text font-size="13.5467" style="fill: #000000;text-anchor:start;font-family:sans-serif;font-style:normal;font-weight:normal" x="386.01" y="161.685">
    <tspan x="386.01" y="161.685">Request</tspan>
  </text>
  <text font-size="13.5467" style="fill: #000000;text-anchor:start;font-family:sans-serif;font-style:normal;font-weight:normal" x="481.624" y="154.036">
    <tspan x="481.624" y="154.036">Respose</tspan>
  </text>
</svg>
